<mxfile host="app.diagrams.net" agent="Mozilla/5.0 (Windows NT 10.0; Win64; x64) AppleWebKit/537.36 (KHTML, like Gecko) Chrome/131.0.0.0 Safari/537.36 Edg/131.0.0.0" version="25.0.3">
  <diagram name="Страница — 1" id="MhEiSCYoDt4nY6_end1W">
    <mxGraphModel dx="702" dy="802" grid="1" gridSize="10" guides="1" tooltips="1" connect="1" arrows="1" fold="1" page="1" pageScale="1" pageWidth="1169" pageHeight="827" math="0" shadow="0">
      <root>
        <mxCell id="0" />
        <mxCell id="1" parent="0" />
        <mxCell id="HLJW09kIqLoH78I1Wo8N-6" style="edgeStyle=orthogonalEdgeStyle;rounded=0;orthogonalLoop=1;jettySize=auto;html=1;exitX=1;exitY=0.5;exitDx=0;exitDy=0;entryX=0;entryY=0.5;entryDx=0;entryDy=0;" edge="1" parent="1" source="HLJW09kIqLoH78I1Wo8N-1" target="HLJW09kIqLoH78I1Wo8N-3">
          <mxGeometry relative="1" as="geometry" />
        </mxCell>
        <mxCell id="HLJW09kIqLoH78I1Wo8N-1" value="Таблица лексем" style="rounded=0;whiteSpace=wrap;html=1;fontSize=20;fontFamily=Times New Roman;" vertex="1" parent="1">
          <mxGeometry x="360" y="400" width="200" height="80" as="geometry" />
        </mxCell>
        <mxCell id="HLJW09kIqLoH78I1Wo8N-5" style="edgeStyle=orthogonalEdgeStyle;rounded=0;orthogonalLoop=1;jettySize=auto;html=1;exitX=1;exitY=0.5;exitDx=0;exitDy=0;entryX=0;entryY=0.5;entryDx=0;entryDy=0;" edge="1" parent="1" source="HLJW09kIqLoH78I1Wo8N-2" target="HLJW09kIqLoH78I1Wo8N-3">
          <mxGeometry relative="1" as="geometry" />
        </mxCell>
        <mxCell id="HLJW09kIqLoH78I1Wo8N-2" value="Таблица идентификаторов" style="rounded=0;whiteSpace=wrap;html=1;fontSize=20;fontFamily=Times New Roman;" vertex="1" parent="1">
          <mxGeometry x="360" y="280" width="200" height="80" as="geometry" />
        </mxCell>
        <mxCell id="HLJW09kIqLoH78I1Wo8N-3" value="Семантический анализатор" style="rounded=0;whiteSpace=wrap;html=1;fontSize=20;fontFamily=Times New Roman;" vertex="1" parent="1">
          <mxGeometry x="640" y="340" width="200" height="80" as="geometry" />
        </mxCell>
      </root>
    </mxGraphModel>
  </diagram>
</mxfile>
